<svg version="1.1" id="Layer_1" xmlns="http://www.w3.org/2000/svg" xmlns:xlink="http://www.w3.org/1999/xlink" x="0px" y="0px"
	 width="100%" viewBox="0 0 537 407" enable-background="new 0 0 537 407" xml:space="preserve">
<path fill="transparent" opacity="1.000000" stroke="none" 
	d="
M379.000000,408.000000 
	C252.666672,408.000000 126.833336,408.000000 1.000000,408.000000 
	C1.000000,272.333344 1.000000,136.666672 1.000000,1.000000 
	C180.000000,1.000000 359.000000,1.000000 538.000000,1.000000 
	C538.000000,136.666672 538.000000,272.333344 538.000000,408.000000 
	C485.166656,408.000000 432.333344,408.000000 379.000000,408.000000 
M183.004364,290.506683 
	C182.238998,289.095428 181.596649,287.599060 180.688690,286.286438 
	C173.777100,276.294403 166.647247,266.449127 159.913544,256.339508 
	C153.320511,246.441101 147.271790,236.180527 140.694839,226.270935 
	C133.992172,216.171875 126.811996,206.390228 120.081657,196.308853 
	C115.817467,189.921555 112.151222,183.136963 107.939827,176.712128 
	C98.707214,162.626938 89.246269,148.691589 79.981300,134.627365 
	C74.505531,126.315170 69.376472,117.771942 63.801235,109.528923 
	C60.509659,104.662300 57.019543,99.822472 52.949104,95.619003 
	C48.475235,90.998909 41.059258,92.954781 36.829681,95.813118 
	C32.900749,98.468269 31.340830,108.464394 34.002068,112.425659 
	C41.220367,123.170113 48.679382,133.753616 55.841736,144.534592 
	C60.094975,150.936691 63.927486,157.616898 68.023415,164.125336 
	C71.795906,170.119812 75.530281,176.145844 79.528656,181.988800 
	C85.182266,190.250595 91.349625,198.171799 96.777763,206.574280 
	C104.350616,218.296677 111.256844,230.449219 118.806702,242.187180 
	C123.976173,250.224335 129.945358,257.743774 135.217041,265.719360 
	C142.481354,276.709717 149.333359,287.971802 156.532623,299.006165 
	C163.169907,309.179108 170.143356,319.133026 176.763947,329.316559 
	C183.072144,339.019562 189.121735,348.890778 195.273193,358.695465 
	C198.427139,363.722443 205.650665,366.914612 211.866745,364.806030 
	C216.482224,363.240417 221.282547,360.862854 221.105423,354.348541 
	C221.046463,352.179626 222.094757,349.982300 222.626129,347.795349 
	C225.083862,337.680298 227.664871,327.592957 229.957993,317.440674 
	C232.336426,306.910614 234.330811,296.294067 236.685043,285.758209 
	C238.997635,275.408722 241.666824,265.138824 243.968872,254.787125 
	C246.626801,242.835144 248.983124,230.816315 251.602905,218.855530 
	C253.980469,208.000626 256.492615,197.174515 259.031372,186.355865 
	C260.295013,180.970963 261.751190,175.631226 263.428589,169.064041 
	C265.824524,173.432022 267.573730,176.469864 269.180511,179.581299 
	C272.714020,186.423645 276.080017,193.353790 279.687012,200.156570 
	C286.400238,212.817642 293.259277,225.401337 300.010223,238.042572 
	C302.535004,242.770172 304.477264,247.589325 309.776550,250.502563 
	C317.481567,254.738327 326.267609,251.853912 328.983063,243.187317 
	C331.902130,233.870819 334.516083,224.458939 337.411346,215.134689 
	C341.863922,200.794922 346.602692,186.542267 350.910828,172.160049 
	C353.670197,162.948334 355.733002,153.529877 358.377991,144.281281 
	C359.987396,138.653763 362.241394,133.213760 363.976074,127.618279 
	C368.047760,114.484383 372.050293,101.328079 375.954895,88.143547 
	C381.910828,68.032326 387.913483,47.932514 393.573700,27.737442 
	C395.611908,20.465412 388.354492,12.733764 381.879791,11.934524 
	C375.049622,11.091400 368.526428,16.277700 366.266083,24.271774 
	C363.956390,32.440296 361.395447,40.537422 358.999603,48.681999 
	C354.972961,62.370483 351.057953,76.092133 346.970551,89.762329 
	C342.383179,105.104652 337.619659,120.394234 333.000854,135.727264 
	C328.287811,151.373001 323.660706,167.044647 318.989075,182.702881 
	C317.340179,188.229462 315.745880,193.775208 313.907532,199.238495 
	C313.697693,199.862198 311.420563,200.553253 311.199280,200.290146 
	C309.329803,198.067398 307.434204,195.780136 306.073578,193.230911 
	C300.272369,182.361862 294.607269,171.419250 288.978760,160.459198 
	C283.792511,150.360352 278.902069,140.104279 273.492310,130.128403 
	C271.566986,126.577980 269.058105,122.855675 265.845062,120.585617 
	C257.051117,114.372688 247.540405,118.469948 244.972351,129.021957 
	C243.309799,135.853394 241.559021,142.665131 240.015427,149.523422 
	C236.620956,164.605103 233.388840,179.723373 229.983063,194.802444 
	C227.397629,206.249390 224.570129,217.641724 221.991592,229.090164 
	C219.656097,239.459503 217.602814,249.892471 215.262024,260.260559 
	C211.579269,276.572662 207.765213,292.855133 203.993118,309.147003 
	C203.290024,312.183685 202.522888,315.205566 201.603607,318.980469 
	C195.069183,308.869965 189.306168,299.953003 183.004364,290.506683 
M406.000092,307.296326 
	C405.666748,304.215759 404.928528,301.115845 405.074951,298.058258 
	C405.538025,288.385590 406.078125,278.703033 407.057098,269.071899 
	C408.547485,254.409225 412.784485,240.485916 419.290833,227.246719 
	C421.045441,223.676453 422.079926,219.671616 424.251862,216.402313 
	C430.612671,206.827637 437.035553,197.255203 444.085724,188.188538 
	C451.051849,179.229950 459.576874,171.948624 470.470428,167.806625 
	C475.679565,165.825958 480.778076,163.490128 485.749329,160.965912 
	C490.774139,158.414520 492.762909,153.791504 491.996979,147.790054 
	C491.375397,142.919693 487.757050,138.960175 482.562042,138.032104 
	C471.512482,136.058075 462.147552,140.901337 453.329346,146.374420 
	C444.599976,151.792374 435.445862,156.669327 428.955841,165.318619 
	C423.210815,172.975067 415.093231,179.055176 410.304169,187.176376 
	C403.433411,198.827713 395.405182,210.036194 391.749695,223.478531 
	C389.704987,230.997360 385.897675,238.067657 384.166107,245.633362 
	C381.787445,256.026367 379.810547,266.647156 379.155365,277.262543 
	C378.420868,289.163574 378.626038,301.238983 379.793671,313.103577 
	C380.700256,322.315857 383.999969,330.930908 389.147400,339.211273 
	C393.669983,346.486450 399.067047,352.197693 405.627625,357.216187 
	C418.466858,367.037476 433.596466,365.999969 448.091431,364.624603 
	C461.156799,363.384918 473.312439,357.630493 485.012085,351.511780 
	C490.406464,348.690582 493.361755,342.459778 491.851196,336.665649 
	C490.446167,331.276428 485.147186,326.145630 479.462189,327.131958 
	C474.158661,328.052124 468.800476,329.527222 463.901123,331.726624 
	C453.599762,336.350983 443.033905,338.605835 431.734589,338.067596 
	C424.027161,337.700439 414.635620,331.685059 411.836700,324.423615 
	C409.768463,319.057770 407.938019,313.600311 406.000092,307.296326 
z"/>
<path fill="#FFFFFF" opacity="1.000000" stroke="none" 
	d="
M183.273758,290.771362 
	C189.306168,299.953003 195.069183,308.869965 201.603607,318.980469 
	C202.522888,315.205566 203.290024,312.183685 203.993118,309.147003 
	C207.765213,292.855133 211.579269,276.572662 215.262024,260.260559 
	C217.602814,249.892471 219.656097,239.459503 221.991592,229.090164 
	C224.570129,217.641724 227.397629,206.249390 229.983063,194.802444 
	C233.388840,179.723373 236.620956,164.605103 240.015427,149.523422 
	C241.559021,142.665131 243.309799,135.853394 244.972351,129.021957 
	C247.540405,118.469948 257.051117,114.372688 265.845062,120.585617 
	C269.058105,122.855675 271.566986,126.577980 273.492310,130.128403 
	C278.902069,140.104279 283.792511,150.360352 288.978760,160.459198 
	C294.607269,171.419250 300.272369,182.361862 306.073578,193.230911 
	C307.434204,195.780136 309.329803,198.067398 311.199280,200.290146 
	C311.420563,200.553253 313.697693,199.862198 313.907532,199.238495 
	C315.745880,193.775208 317.340179,188.229462 318.989075,182.702881 
	C323.660706,167.044647 328.287811,151.373001 333.000854,135.727264 
	C337.619659,120.394234 342.383179,105.104652 346.970551,89.762329 
	C351.057953,76.092133 354.972961,62.370483 358.999603,48.681999 
	C361.395447,40.537422 363.956390,32.440296 366.266083,24.271774 
	C368.526428,16.277700 375.049622,11.091400 381.879791,11.934524 
	C388.354492,12.733764 395.611908,20.465412 393.573700,27.737442 
	C387.913483,47.932514 381.910828,68.032326 375.954895,88.143547 
	C372.050293,101.328079 368.047760,114.484383 363.976074,127.618279 
	C362.241394,133.213760 359.987396,138.653763 358.377991,144.281281 
	C355.733002,153.529877 353.670197,162.948334 350.910828,172.160049 
	C346.602692,186.542267 341.863922,200.794922 337.411346,215.134689 
	C334.516083,224.458939 331.902130,233.870819 328.983063,243.187317 
	C326.267609,251.853912 317.481567,254.738327 309.776550,250.502563 
	C304.477264,247.589325 302.535004,242.770172 300.010223,238.042572 
	C293.259277,225.401337 286.400238,212.817642 279.687012,200.156570 
	C276.080017,193.353790 272.714020,186.423645 269.180511,179.581299 
	C267.573730,176.469864 265.824524,173.432022 263.428589,169.064041 
	C261.751190,175.631226 260.295013,180.970963 259.031372,186.355865 
	C256.492615,197.174515 253.980469,208.000626 251.602905,218.855530 
	C248.983124,230.816315 246.626801,242.835144 243.968872,254.787125 
	C241.666824,265.138824 238.997635,275.408722 236.685043,285.758209 
	C234.330811,296.294067 232.336426,306.910614 229.957993,317.440674 
	C227.664871,327.592957 225.083862,337.680298 222.626129,347.795349 
	C222.094757,349.982300 221.046463,352.179626 221.105423,354.348541 
	C221.282547,360.862854 216.482224,363.240417 211.866745,364.806030 
	C205.650665,366.914612 198.427139,363.722443 195.273193,358.695465 
	C189.121735,348.890778 183.072144,339.019562 176.763947,329.316559 
	C170.143356,319.133026 163.169907,309.179108 156.532623,299.006165 
	C149.333359,287.971802 142.481354,276.709717 135.217041,265.719360 
	C129.945358,257.743774 123.976173,250.224335 118.806702,242.187180 
	C111.256844,230.449219 104.350616,218.296677 96.777763,206.574280 
	C91.349625,198.171799 85.182266,190.250595 79.528656,181.988800 
	C75.530281,176.145844 71.795906,170.119812 68.023415,164.125336 
	C63.927486,157.616898 60.094975,150.936691 55.841736,144.534592 
	C48.679382,133.753616 41.220367,123.170113 34.002068,112.425659 
	C31.340830,108.464394 32.900749,98.468269 36.829681,95.813118 
	C41.059258,92.954781 48.475235,90.998909 52.949104,95.619003 
	C57.019543,99.822472 60.509659,104.662300 63.801235,109.528923 
	C69.376472,117.771942 74.505531,126.315170 79.981300,134.627365 
	C89.246269,148.691589 98.707214,162.626938 107.939827,176.712128 
	C112.151222,183.136963 115.817467,189.921555 120.081657,196.308853 
	C126.811996,206.390228 133.992172,216.171875 140.694839,226.270935 
	C147.271790,236.180527 153.320511,246.441101 159.913544,256.339508 
	C166.647247,266.449127 173.777100,276.294403 180.688690,286.286438 
	C181.596649,287.599060 182.238998,289.095428 183.273758,290.771362 
z"/>
<path fill="#FFFFFF" opacity="1.000000" stroke="none" 
	d="
M406.000854,307.739990 
	C407.938019,313.600311 409.768463,319.057770 411.836700,324.423615 
	C414.635620,331.685059 424.027161,337.700439 431.734589,338.067596 
	C443.033905,338.605835 453.599762,336.350983 463.901123,331.726624 
	C468.800476,329.527222 474.158661,328.052124 479.462189,327.131958 
	C485.147186,326.145630 490.446167,331.276428 491.851196,336.665649 
	C493.361755,342.459778 490.406464,348.690582 485.012085,351.511780 
	C473.312439,357.630493 461.156799,363.384918 448.091431,364.624603 
	C433.596466,365.999969 418.466858,367.037476 405.627625,357.216187 
	C399.067047,352.197693 393.669983,346.486450 389.147400,339.211273 
	C383.999969,330.930908 380.700256,322.315857 379.793671,313.103577 
	C378.626038,301.238983 378.420868,289.163574 379.155365,277.262543 
	C379.810547,266.647156 381.787445,256.026367 384.166107,245.633362 
	C385.897675,238.067657 389.704987,230.997360 391.749695,223.478531 
	C395.405182,210.036194 403.433411,198.827713 410.304169,187.176376 
	C415.093231,179.055176 423.210815,172.975067 428.955841,165.318619 
	C435.445862,156.669327 444.599976,151.792374 453.329346,146.374420 
	C462.147552,140.901337 471.512482,136.058075 482.562042,138.032104 
	C487.757050,138.960175 491.375397,142.919693 491.996979,147.790054 
	C492.762909,153.791504 490.774139,158.414520 485.749329,160.965912 
	C480.778076,163.490128 475.679565,165.825958 470.470428,167.806625 
	C459.576874,171.948624 451.051849,179.229950 444.085724,188.188538 
	C437.035553,197.255203 430.612671,206.827637 424.251862,216.402313 
	C422.079926,219.671616 421.045441,223.676453 419.290833,227.246719 
	C412.784485,240.485916 408.547485,254.409225 407.057098,269.071899 
	C406.078125,278.703033 405.538025,288.385590 405.074951,298.058258 
	C404.928528,301.115845 405.666748,304.215759 406.000854,307.739990 
z"/>
</svg>